<svg width="89" height="100" viewBox="0 0 89 100" fill="none" xmlns="http://www.w3.org/2000/svg">
<path d="M4.74079 33.3761C4.04079 34.8761 4.24079 36.7761 5.44079 37.9761L27.3408 59.8761L25.9408 61.2761L6.94079 42.2761C5.54079 40.8761 3.34079 40.5761 1.74079 41.6761C-0.35921 43.1761 -0.559211 46.0761 1.14079 47.7761L53.4408 99.1761L83.3408 70.0761L80.1408 66.9761L59.3408 87.9761L4.74079 33.3761Z" fill="#194285"/>
<path d="M39.6408 20.3761C39.6408 15.3761 42.6408 14.3761 44.2408 14.1761L31.2408 1.1761C29.6408 -0.423896 26.9408 -0.423896 25.4408 1.3761C24.0408 2.9761 24.2408 5.4761 25.7408 7.0761L39.6408 20.3761Z" fill="#5FC8F1"/>
<path d="M88.4408 54.1761L51.2408 16.9761C49.0408 14.7761 45.5408 14.7761 43.4408 16.9761C41.3408 19.1761 41.2408 22.6761 43.4408 24.7761L55.9408 37.3761L54.6408 38.6761L21.5408 5.57609C20.0408 4.07609 17.4408 3.77609 15.8408 5.27609C14.1408 6.77609 14.0408 9.47609 15.6408 11.0761L40.3408 35.7761L38.9408 37.1761L17.3408 15.4761C15.8408 13.9761 13.2408 13.6761 11.6408 15.1761C9.94076 16.6761 9.84076 19.3761 11.4408 20.9761L33.3408 42.8761L31.9408 44.2761L13.1408 25.3761C11.6408 23.8761 9.04076 23.5761 7.44076 25.0761C5.74076 26.5761 5.64076 29.2761 7.24076 30.8761L59.6408 83.1761L88.4408 54.1761Z" fill="#5FC8F1"/>
</svg>
