<svg width="100" height="100" viewBox="0 0 100 100" fill="none" xmlns="http://www.w3.org/2000/svg">
<path d="M100 41V0H59L100 41Z" fill="#5FC8F1"/>
<path d="M77 70.9L67.7 80.1C62.5 85.3 59 93 58.3 100H100V48L77 70.9Z" fill="#5FC8F1"/>
<path d="M29 23C29 23 47.5 4.5 52 0H0V60.5C6 47.1 14.8 35.5 29 23Z" fill="#5FC8F1"/>
<path d="M58.9586 0.112183L99.829 40.9826L57.898 82.9136L17.0276 42.0432L58.9586 0.112183Z" fill="#194285"/>
<path d="M25 41H18L20 39H25V41Z" fill="#5FC8F1"/>
<rect x="23" y="47" width="8" height="2" transform="rotate(-90 23 47)" fill="#5FC8F1"/>
<rect x="23" y="45" width="8" height="2" fill="#5FC8F1"/>
<rect x="29" y="53" width="8" height="2" transform="rotate(-90 29 53)" fill="#5FC8F1"/>
<rect x="29" y="51" width="8" height="2" fill="#5FC8F1"/>
<rect x="35" y="59" width="8" height="2" transform="rotate(-90 35 59)" fill="#5FC8F1"/>
<rect x="35" y="57" width="8" height="2" fill="#5FC8F1"/>
<rect x="41" y="65" width="8" height="2" transform="rotate(-90 41 65)" fill="#5FC8F1"/>
<rect x="41" y="63" width="8" height="2" fill="#5FC8F1"/>
<rect x="47" y="71" width="8" height="2" transform="rotate(-90 47 71)" fill="#5FC8F1"/>
<rect x="47" y="69" width="8" height="2" fill="#5FC8F1"/>
<rect x="53" y="77" width="8" height="2" transform="rotate(-90 53 77)" fill="#5FC8F1"/>
<rect x="53" y="75" width="8" height="2" fill="#5FC8F1"/>
<path d="M61 75V80L59 82V75H61Z" fill="#5FC8F1"/>
<path d="M31 35H24L26 33H31V35Z" fill="#5FC8F1"/>
<rect x="29" y="41" width="8" height="2" transform="rotate(-90 29 41)" fill="#5FC8F1"/>
<rect x="29" y="39" width="8" height="2" fill="#5FC8F1"/>
<rect x="35" y="47" width="8" height="2" transform="rotate(-90 35 47)" fill="#5FC8F1"/>
<rect x="35" y="45" width="8" height="2" fill="#5FC8F1"/>
<rect x="41" y="53" width="8" height="2" transform="rotate(-90 41 53)" fill="#5FC8F1"/>
<rect x="41" y="51" width="8" height="2" fill="#5FC8F1"/>
<rect x="47" y="59" width="8" height="2" transform="rotate(-90 47 59)" fill="#5FC8F1"/>
<rect x="47" y="57" width="8" height="2" fill="#5FC8F1"/>
<rect x="53" y="65" width="8" height="2" transform="rotate(-90 53 65)" fill="#5FC8F1"/>
<rect x="53" y="63" width="8" height="2" fill="#5FC8F1"/>
<rect x="59" y="71" width="8" height="2" transform="rotate(-90 59 71)" fill="#5FC8F1"/>
<rect x="59" y="69" width="8" height="2" fill="#5FC8F1"/>
<path d="M67 69V74L65 76V69H67Z" fill="#5FC8F1"/>
<path d="M37 29H30L32 27H37V29Z" fill="#5FC8F1"/>
<rect x="35" y="35" width="8" height="2" transform="rotate(-90 35 35)" fill="#5FC8F1"/>
<rect x="35" y="33" width="8" height="2" fill="#5FC8F1"/>
<rect x="41" y="41" width="8" height="2" transform="rotate(-90 41 41)" fill="#5FC8F1"/>
<rect x="41" y="39" width="8" height="2" fill="#5FC8F1"/>
<rect x="47" y="47" width="8" height="2" transform="rotate(-90 47 47)" fill="#5FC8F1"/>
<rect x="47" y="45" width="8" height="2" fill="#5FC8F1"/>
<rect x="53" y="53" width="8" height="2" transform="rotate(-90 53 53)" fill="#5FC8F1"/>
<rect x="53" y="51" width="8" height="2" fill="#5FC8F1"/>
<rect x="59" y="59" width="8" height="2" transform="rotate(-90 59 59)" fill="#5FC8F1"/>
<rect x="59" y="57" width="8" height="2" fill="#5FC8F1"/>
<rect x="65" y="65" width="8" height="2" transform="rotate(-90 65 65)" fill="#5FC8F1"/>
<rect x="65" y="63" width="8" height="2" fill="#5FC8F1"/>
<path d="M73 63V68L71 70V63H73Z" fill="#5FC8F1"/>
<path d="M43 23H36L38 21H43V23Z" fill="#5FC8F1"/>
<rect x="41" y="29" width="8" height="2" transform="rotate(-90 41 29)" fill="#5FC8F1"/>
<rect x="41" y="27" width="8" height="2" fill="#5FC8F1"/>
<rect x="47" y="35" width="8" height="2" transform="rotate(-90 47 35)" fill="#5FC8F1"/>
<rect x="47" y="33" width="8" height="2" fill="#5FC8F1"/>
<rect x="53" y="41" width="8" height="2" transform="rotate(-90 53 41)" fill="#5FC8F1"/>
<rect x="53" y="39" width="8" height="2" fill="#5FC8F1"/>
<rect x="59" y="47" width="8" height="2" transform="rotate(-90 59 47)" fill="#5FC8F1"/>
<rect x="59" y="45" width="8" height="2" fill="#5FC8F1"/>
<rect x="65" y="53" width="8" height="2" transform="rotate(-90 65 53)" fill="#5FC8F1"/>
<rect x="65" y="51" width="8" height="2" fill="#5FC8F1"/>
<rect x="71" y="59" width="8" height="2" transform="rotate(-90 71 59)" fill="#5FC8F1"/>
<rect x="71" y="57" width="8" height="2" fill="#5FC8F1"/>
<path d="M79 57V62L77 64V57H79Z" fill="#5FC8F1"/>
<path d="M49 17H42L44 15H49V17Z" fill="#5FC8F1"/>
<rect x="47" y="23" width="8" height="2" transform="rotate(-90 47 23)" fill="#5FC8F1"/>
<rect x="47" y="21" width="8" height="2" fill="#5FC8F1"/>
<rect x="53" y="29" width="8" height="2" transform="rotate(-90 53 29)" fill="#5FC8F1"/>
<rect x="53" y="27" width="8" height="2" fill="#5FC8F1"/>
<rect x="59" y="35" width="8" height="2" transform="rotate(-90 59 35)" fill="#5FC8F1"/>
<rect x="59" y="33" width="8" height="2" fill="#5FC8F1"/>
<rect x="65" y="41" width="8" height="2" transform="rotate(-90 65 41)" fill="#5FC8F1"/>
<rect x="65" y="39" width="8" height="2" fill="#5FC8F1"/>
<rect x="71" y="47" width="8" height="2" transform="rotate(-90 71 47)" fill="#5FC8F1"/>
<rect x="71" y="45" width="8" height="2" fill="#5FC8F1"/>
<rect x="77" y="53" width="8" height="2" transform="rotate(-90 77 53)" fill="#5FC8F1"/>
<rect x="77" y="51" width="8" height="2" fill="#5FC8F1"/>
<path d="M85 51V56L83 58V51H85Z" fill="#5FC8F1"/>
<path d="M55 11H48L50 9H55V11Z" fill="#5FC8F1"/>
<rect x="53" y="17" width="8" height="2" transform="rotate(-90 53 17)" fill="#5FC8F1"/>
<rect x="53" y="15" width="8" height="2" fill="#5FC8F1"/>
<rect x="59" y="23" width="8" height="2" transform="rotate(-90 59 23)" fill="#5FC8F1"/>
<rect x="59" y="21" width="8" height="2" fill="#5FC8F1"/>
<rect x="65" y="29" width="8" height="2" transform="rotate(-90 65 29)" fill="#5FC8F1"/>
<rect x="65" y="27" width="8" height="2" fill="#5FC8F1"/>
<rect x="71" y="35" width="8" height="2" transform="rotate(-90 71 35)" fill="#5FC8F1"/>
<rect x="71" y="33" width="8" height="2" fill="#5FC8F1"/>
<rect x="77" y="41" width="8" height="2" transform="rotate(-90 77 41)" fill="#5FC8F1"/>
<rect x="77" y="39" width="8" height="2" fill="#5FC8F1"/>
<rect x="83" y="47" width="8" height="2" transform="rotate(-90 83 47)" fill="#5FC8F1"/>
<rect x="83" y="45" width="8" height="2" fill="#5FC8F1"/>
<path d="M91 45V50L89 52V45H91Z" fill="#5FC8F1"/>
<path d="M61 5H54L56 3H61V5Z" fill="#5FC8F1"/>
<rect x="59" y="11" width="8" height="2" transform="rotate(-90 59 11)" fill="#5FC8F1"/>
<rect x="59" y="9" width="8" height="2" fill="#5FC8F1"/>
<rect x="65" y="17" width="8" height="2" transform="rotate(-90 65 17)" fill="#5FC8F1"/>
<rect x="65" y="15" width="8" height="2" fill="#5FC8F1"/>
<rect x="71" y="23" width="8" height="2" transform="rotate(-90 71 23)" fill="#5FC8F1"/>
<rect x="71" y="21" width="8" height="2" fill="#5FC8F1"/>
<rect x="77" y="29" width="8" height="2" transform="rotate(-90 77 29)" fill="#5FC8F1"/>
<rect x="77" y="27" width="8" height="2" fill="#5FC8F1"/>
<rect x="83" y="35" width="8" height="2" transform="rotate(-90 83 35)" fill="#5FC8F1"/>
<rect x="83" y="33" width="8" height="2" fill="#5FC8F1"/>
<rect x="89" y="41" width="8" height="2" transform="rotate(-90 89 41)" fill="#5FC8F1"/>
<rect x="89" y="39" width="8" height="2" fill="#5FC8F1"/>
<path d="M97 39V44L95 46V39H97Z" fill="#5FC8F1"/>
</svg>
