<svg xmlns="http://www.w3.org/2000/svg" width="42" height="50" viewBox="0 0 42 50">
    <g fill="none">
        <g fill="#194285">
            <path d="M31 7H11c-.2 2.7-2.3 5-5 5.1V22c.4 9.1 6.5 17.5 15 20.8 8.6-3.5 14.8-11.7 15-20.8v-9.9c-2.7-.1-4.8-2.4-5-5.1z"/>
            <path d="M35 0H7c-.2 3.7-3.2 6.7-7 7v13.9c0 13.2 8.5 25 21 29.1 12.5-4.2 21-15.9 21-29.1V7c-3.7-.3-6.8-3.3-7-7zm3 21.7c0 10.7-6.8 20.2-17 23.6C10.8 41.9 4 32.4 4 21.7V10.4C7 10.2 9.4 8 9.6 5h22.7c.2 3 2.6 5.2 5.7 5.4v11.3z"/>
        </g>
        <path fill="#5FC8F1" d="M27.2 15.2L19 23l-3.2-3c-.8-.8-2-.8-2.8 0-.8.8-.8 2 0 2.8l5.9 5.9.1-.1.1.1 10.7-11c.7-.7.7-1.9-.1-2.6-.8-.5-1.8-.5-2.5.1z"/>
    </g>
</svg>
