<svg xmlns="http://www.w3.org/2000/svg" width="50" height="50" viewBox="0 0 50 50">
    <g fill="none">
        <path fill="#194285" d="M48.5 49c-.8.8-2 .8-2.8 0L23.8 27.2l2.8-2.8 21.8 21.8c.9.7.9 2 .1 2.8z"/>
        <path fill="#5FC8F1" d="M16.8 6.7L18 4.3c.2-.4.7-.2.7.2v2.6C18.7 8.3 20 9 21 8.3l2.1-1.5c.3-.2.8.1.6.5l-1.2 2.3c-.6 1.1.3 2.3 1.5 2.2l2.6-.3c.4-.1.6.5.3.7l-2.2 1.5c-1 .7-.8 2.2.3 2.6l2.4.9c.4.1.3.7-.1.8l-2.6.3c-1.2.1-1.7 1.6-.9 2.4l1.8 1.9c.3.3 0 .8-.4.6l-2.4-1c-1.1-.4-2.3.6-2 1.7l.7 2.5c.1.4-.4.7-.7.4l-1.7-2c-.8-.9-2.3-.5-2.5.6l-.7 2.6c-.1.4-.7.4-.8 0l-.6-2.5c-.3-1.2-1.8-1.5-2.5-.6l-1.7 2c-.3.3-.8 0-.7-.4l.7-2.5c.3-1.2-.8-2.2-2-1.7l-2.4 1c-.4.2-.7-.3-.4-.6l1.8-1.9c.8-.9.3-2.3-.9-2.4l-2.6-.3c-.4 0-.5-.6-.1-.8L6 16.2c1.1-.4 1.3-1.9.3-2.6l-2.2-1.5c-.3-.2-.1-.8.3-.7l2.6.4c1.2.2 2.1-1.1 1.5-2.2L7.3 7.3c-.2-.3.2-.7.6-.5L10 8.3c1 .7 2.3 0 2.3-1.2V4.5c0-.4.6-.6.7-.2l1.2 2.3c.5 1.1 2.1 1.1 2.6.1z"/>
        <g fill="#194285">
            <path d="M6 2L4 2 4 0 2 0 2 2 0 2 0 4 2 4 2 6 4 6 4 4 6 4zM50 10L48 10 48 8 46 8 46 10 44 10 44 12 46 12 46 14 48 14 48 12 50 12zM21 46L19 46 19 44 17 44 17 46 15 46 15 48 17 48 17 50 19 50 19 48 21 48z"/>
            <g>
                <path d="M0 2H5V3H0z" transform="translate(28)"/>
                <path d="M0 2H5V3H0z" transform="translate(28) rotate(-90 2.5 2.5)"/>
            </g>
            <g>
                <path d="M0 2H5V3H0z" transform="translate(0 27)"/>
                <path d="M0 2H5V3H0z" transform="translate(0 27) rotate(-90 2.5 2.5)"/>
            </g>
            <g>
                <path d="M0 2H5V3H0z" transform="translate(37 26)"/>
                <path d="M0 2H5V3H0z" transform="translate(37 26) rotate(-90 2.5 2.5)"/>
            </g>
        </g>
    </g>
</svg>
