<svg xmlns="http://www.w3.org/2000/svg" width="52" height="45" viewBox="0 0 52 45">
    <g fill="none" fill-rule="evenodd" transform="translate(1 1)">
        <path fill="#008ED4" fill-rule="nonzero" d="M17.5 43c5.464 0 10.39-3.172 12.476-8.035 2.087-4.863.924-10.458-2.947-14.173-3.87-3.714-9.684-4.815-14.727-2.79C7.259 20.03 3.982 24.783 4 30.046 4.026 37.207 10.062 43 17.5 43"/>
        <path stroke="#FFF" stroke-width=".74" d="M17.5 43c5.464 0 10.39-3.172 12.476-8.035 2.087-4.863.924-10.458-2.947-14.173-3.87-3.714-9.684-4.815-14.727-2.79C7.259 20.03 3.982 24.783 4 30.046 4.026 37.207 10.062 43 17.5 43z"/>
        <path fill="#FFF" fill-rule="nonzero" d="M13 31a5 5 0 100-10 5 5 0 000 10"/>
        <path fill="#008ED4" fill-rule="nonzero" d="M32 31c8.284 0 15-6.716 15-15 0-8.284-6.716-15-15-15-8.284 0-15 6.716-15 15 0 8.284 6.716 15 15 15"/>
        <ellipse cx="32.746" cy="16.008" stroke="#FFF" stroke-width=".74" rx="15.205" ry="15.123" transform="rotate(-.71 32.746 16.008)"/>
        <path fill="#FFF" fill-rule="nonzero" d="M26.988 18a6 6 0 10.024-12 6 6 0 00-.024 12"/>
        <path fill="#008ED4" fill-rule="nonzero" d="M42 40a8 8 0 100-16 8 8 0 000 16"/>
        <path stroke="#FFF" stroke-width=".58" d="M42 40a8 8 0 100-16 8 8 0 000 16h0z"/>
        <path fill="#008ED4" fill-rule="nonzero" d="M10 20c5.523 0 10-4.477 10-10S15.523 0 10 0 0 4.477 0 10s4.477 10 10 10"/>
        <path stroke="#FFF" stroke-width=".74" d="M10 20c5.523 0 10-4.477 10-10S15.523 0 10 0 0 4.477 0 10a10 10 0 0010 10h0z"/>
        <path fill="#FFF" fill-rule="nonzero" d="M5.49 10a2.5 2.5 0 10.02-5 2.5 2.5 0 00-.02 5"/>
    </g>
</svg>
