<svg xmlns="http://www.w3.org/2000/svg" width="50" height="50" viewBox="0 0 50 50">
    <g fill="none">
        <path fill="#5FC8F1" d="M36.9 19c.1-.3.1-.7.1-1 0-2.4-1.7-4.4-4-4.9v-1c0-.6.3-1.3.7-1.7l.8-.8-1.4-1.4-.6.6c-.9.9-1.5 2.2-1.4 3.6v.5h-.9c-1.1 0-2.1.1-3.1.2V9h-2v4.5c-1.1.2-2.3.5-3.4.9l-1.9-3.6-1.8 1 1.8 3.4c-2.2 1-4.3 2.3-6.2 3.8h-2.1c-.3 0-.7-.1-.9-.4L8.9 17l-1.4 1.4 1 1.1c.8.8 1.8 1.3 3 1.4-1.2 1.5-1.4 3.5-.6 5.2l-2.4 2.4L9.9 30l2.2-2.2c1.1 1 2.5 1.3 3.8 1.2v3h2v-3.7c.3-.2.6-.4.8-.6L22 31l1.5-1.4-3.2-3.4c1.9-1.7 4.3-2.8 6.8-3.1l2.4 2.4c.9 1 2.2 1.5 3.5 1.5h1v-2h-1.1c-.6 0-1.3-.3-1.7-.7L29.9 23h-1.4H32c1.6 0 3.1-.8 4-2h4v-2h-3.1zm-11.4 1.1c-.9 0-1.6-.7-1.6-1.6 0-.9.7-1.6 1.6-1.6.9 0 1.6.7 1.6 1.6 0 .9-.7 1.6-1.6 1.6zm7.5 1c-1.2 0-2.1-1-2.1-2.1 0-1.2 1-2.1 2.1-2.1 1.2 0 2.1 1 2.1 2.1 0 1.2-.9 2.1-2.1 2.1z"/>
        <path fill="#194285" d="M25 0C11.2 0 0 11.2 0 25s11.2 25 25 25 25-11.2 25-25S38.8 0 25 0zM3.9 25c0-5.3 2-10.2 5.3-13.9l29.7 29.7c-3.7 3.3-8.6 5.3-13.9 5.3-11.6 0-21.1-9.5-21.1-21.1zm36.5 14.4L10.6 9.6C14.4 6 19.4 3.9 25 3.9c11.6 0 21.1 9.4 21.1 21.1 0 5.6-2.2 10.7-5.7 14.4z"/>
        <path fill="#5FC8F1" d="M20.5 36.2L22.5 36.2 22.5 39.8 20.5 39.8z" transform="rotate(-45 21.5 38)"/>
        <path fill="#5FC8F1" d="M27 37H29V41H27z"/>
        <path fill="#5FC8F1" d="M36.5 26.2L38.5 26.2 38.5 29.8 36.5 29.8z" transform="rotate(45 37.5 28)"/>
    </g>
</svg>
