<svg width="100" height="101" viewBox="0 0 100 101" fill="none" xmlns="http://www.w3.org/2000/svg">
<path d="M84.375 89.8L83.575 89.6C77.1749 88.7 70.875 86.2 64.875 83.4L61.075 81.6C53.775 78.2 45.275 78.2 37.975 81.6L34.1749 83.4C28.275 86.1 21.975 88.7 15.475 89.6H15.175C9.07495 90.5 2.37495 85.7 1.07495 79.7C1.27495 82.8 1.07495 85.9 1.57495 88.2L2.07495 91.1C3.37495 97.1 9.07495 101.1 15.075 100.2H15.375C21.875 99.3 28.075 97.4 34.075 94.7L37.875 92.9C45.1749 89.5 53.675 89.5 60.975 92.9L64.775 94.7C70.6749 97.4 76.975 99.3 83.475 100.2H84.1749C90.075 101 95.7749 97.4 97.2749 91.6C98.075 88.4 98.6749 85.1 99.075 81.8C96.875 86.8 89.775 90.5 84.375 89.8Z" fill="#194285"/>
<path fill-rule="evenodd" clip-rule="evenodd" d="M97.375 40.6L97.475 40.9C100.275 52.7 100.275 65.1 97.175 77C95.775 82.9 90.175 86.7 84.275 85.8L83.475 85.7C76.975 84.7 70.675 82.9 64.775 80.1L60.975 78.3C53.775 74.3 45.375 74.3 37.875 78.3L34.075 80.1C28.075 82.9 21.875 84.8 15.375 85.7H15.075C9.075 86.6 3.375 82.5 2.075 76.4L1.575 73.8C-0.525 63.8 -0.525 53.4 1.575 43.4L1.875 40.9C3.175 34.7 8.975 30.7 15.175 31.7C21.475 32.8 27.675 34.7 33.475 37.6L37.275 39.5C39.375 40.5 43.075 41.5 45.375 42C45.375 42.0394 45.363 42.1371 45.3455 42.2794C45.2293 43.2234 44.8716 46.1311 46.175 47C46.225 47.05 46.275 47.075 46.325 47.1C46.375 47.125 46.425 47.15 46.475 47.2C44.975 48.6 44.375 50.7 44.875 52.7C45.375 55 47.575 57 50.075 57C52.675 57 55.275 55 55.975 52.4C56.575 50.1 55.475 47.5 53.275 46.5L52.675 46.2C53.375 45.4 53.675 44.5 53.675 43.4C53.675 43 53.575 42.5 53.375 42.1C56.175 41.7 58.975 40.9 61.575 39.6L65.475 37.8C71.275 35 77.375 33 83.775 31.9L84.175 31.8C90.175 30.8 95.875 34.6 97.375 40.6ZM7.075 54.8C7.375 55.9 8.875 56.6 10.475 56.3C12.075 56 13.075 54.9 12.775 53.8C12.475 52.7 10.975 52 9.375 52.3C7.775 52.6 6.775 53.7 7.075 54.8ZM21.175 76.2C17.975 76.7 14.875 75.4 14.275 73.3C13.675 71.2 15.775 69 18.975 68.4C22.175 67.9 25.275 69.2 25.875 71.3C26.375 73.5 24.375 75.7 21.175 76.2ZM25.975 49.5C26.375 51 28.475 52 30.575 51.6C32.775 51.2 34.175 49.7 33.675 48.2C33.275 46.7 31.175 45.7 29.075 46.1C26.975 46.4 25.575 48 25.975 49.5ZM86.175 35.3C87.775 35 89.375 35.7 89.675 36.9C89.975 38 88.975 39.2 87.375 39.5C85.775 39.8 84.175 39.1 83.875 37.9C83.575 36.7 84.575 35.6 86.175 35.3ZM63.775 68.3C64.175 69.9 66.275 70.9 68.475 70.5C70.675 70.1 72.075 68.6 71.575 67C71.175 65.4 69.075 64.4 66.875 64.8C64.775 65.2 63.375 66.7 63.775 68.3ZM86.675 79.9C84.975 80.2 83.275 79.4 82.875 78.2C82.575 77 83.675 75.7 85.375 75.4C87.075 75.1 88.775 75.9 89.175 77.1C89.475 78.4 88.375 79.6 86.675 79.9ZM79.775 52.7C80.275 54.5 83.075 55.6 85.975 55.1C88.875 54.6 90.775 52.7 90.275 50.9C89.775 49.1 86.975 48 84.075 48.5C81.175 49 79.275 50.9 79.775 52.7Z" fill="#194285"/>
<path d="M50.475 14.1L42.075 5.70002C41.675 5.30002 41.075 5.30002 40.675 5.70002C40.275 6.10002 40.275 6.70002 40.675 7.10002L49.075 15.5L50.475 14.1Z" fill="#194285"/>
<path d="M99.575 0.1V7.6L96.6749 10.7L91.775 15.6C86.575 20.8 78.275 20.8 73.075 15.6L62.875 5.4C61.375 3.9 60.375 2.2 59.675 0.3C59.675 0.2 59.675 0 59.575 0C59.575 0.1 99.575 0.1 99.575 0.1Z" fill="#194285"/>
<path d="M60.175 8.5L52.275 16.4C51.475 17.2 51.475 18.4 52.275 19.2L58.475 25.4C59.275 26.2 60.475 26.2 61.275 25.4L69.175 17.5L60.175 8.5Z" fill="#194285"/>
<path fill-rule="evenodd" clip-rule="evenodd" d="M62.075 46.8C62.375 47.4 62.575 48 62.675 48.6C63.875 54.2 60.275 59.7 54.575 60.9C48.975 62.1 43.475 58.5 42.275 52.9C41.875 50.8 42.075 48.7 42.875 46.8L42.975 46.7C43.275 46 52.575 29.8 52.575 29.8C52.575 29.8 61.775 46 62.075 46.7V46.8ZM46.175 52.5C46.675 54.6 48.675 55.9 50.775 55.5C52.875 55.1 54.275 53 53.775 50.9C53.275 48.8 51.275 47.5 49.175 47.9C47.075 48.4 45.775 50.4 46.175 52.5Z" fill="#5FC8F1"/>
</svg>
