<svg width="100" height="101" viewBox="0 0 100 101" fill="none" xmlns="http://www.w3.org/2000/svg">
<path d="M60.3 100.036H98C99.1 100.036 100 99.1359 100 98.0359V48.0359L71.5 76.7359C65.2 83.0359 61.3 91.2359 60.3 100.036Z" fill="#5FC8F1"/>
<path d="M51 0.0358887H2C0.9 0.0358887 0 0.935889 0 2.03589V73.4359C5.4 53.2359 15.9 34.6359 31 19.6359L51 0.0358887Z" fill="#5FC8F1"/>
<path d="M63 0.0358887C63 0.0358887 63 0.335889 63.1 0.535889C65.9 4.43589 68 8.73589 69.6 13.2359L70.6 16.2359C72.6 22.1359 77.3 26.8359 83.2 28.8359L86.2 29.8359C90.7 31.3359 95 33.5359 98.9 36.3359L99.1 36.5359C99.4 36.7359 100 37.0359 100 37.0359V2.03589C100 0.935889 99.1 0.0358887 98 0.0358887H63Z" fill="#5FC8F1"/>
<path d="M69.9 61.3358L69.6 60.9358C67.1 57.5358 65.4 53.5358 63.9 49.6358L62.9 47.0358C61.1 42.1358 57.2 38.3358 52.4 36.5358L49.9 35.6358C46 34.1358 41.9 32.5358 38.6 29.9358L38.4 29.8358C35.2 27.4358 34.3 22.2358 36.5 18.9358C35.2 20.4358 33.7 21.7358 32.8 23.0358L31.9 24.4358C29.7 27.7358 30.5 32.1358 33.7 34.5358L33.9 34.6358C37.3 37.1358 41 39.1358 44.9 40.6358L47.4 41.5358C52.3 43.3358 56.1 47.2358 57.9 52.0358L58.8 54.5358C60.3 58.4358 62.3 62.1358 64.8 65.5358L65.1 65.8358C67.4 68.9358 71.6 69.8358 74.9 67.8358C76.8 66.7358 78.5 65.5358 80.2 64.1358C76.9 65.6358 72 64.1358 69.9 61.3358Z" fill="#194285"/>
<path fill-rule="evenodd" clip-rule="evenodd" d="M98.6 44.3359L98.5 44.5359C94.4 51.2359 88.8 56.9359 82 60.8359C78.6 62.8359 74.4 62.0359 72.1 58.9359L71.8 58.5359C69.3 55.2359 67.3 51.5359 65.9 47.5359L65 45.0359C63.5 39.9359 59.7 36.0359 54.5 34.5359L51.9 33.6359C48 32.2359 44.3 30.2359 40.9 27.7359L40.7 27.6359C37.5 25.2359 36.8 20.7359 39 17.4359L40 15.9359C43.6 10.4359 48.3 5.73585 53.8 2.13585L55.1 1.23585C58.5 -0.964148 63 -0.164148 65.3 3.13585C67.7 6.53585 69.6 10.2359 70.9 14.1359L71.8 16.7359C73.6 21.9359 77.6 25.9359 82.8 27.7359L85.4 28.6359C89.3 29.9359 93 31.8359 96.4 34.2359L96.6 34.3359C99.8 36.5359 100.7 40.9359 98.6 44.3359ZM51.1 9.83585C50.7 10.4359 51.1 11.4359 51.9 12.0359C52.8 12.6359 53.7 12.5359 54.1 11.9359C54.5 11.3359 54.1 10.3359 53.3 9.73585C52.4 9.13585 51.5 9.23585 51.1 9.83585ZM47.7 25.9359C46 24.7359 45.2 22.7359 45.9 21.4359C46.6 20.1359 48.5 20.1359 50.2 21.3359C51.9 22.5359 52.7 24.5359 52 25.8359C51.4 27.1359 49.4 27.1359 47.7 25.9359ZM62.1 15.9359C61.6 16.8359 62.1 18.2359 63.2 19.0359C64.4 19.8359 65.7 19.8359 66.2 18.9359C66.7 18.0359 66.2 16.6359 65.1 15.8359C63.9 14.9359 62.6 15.0359 62.1 15.9359ZM95.9 36.9359C96.8 37.5359 97.1 38.5359 96.8 39.2359C96.4 39.9359 95.4 39.9359 94.6 39.3359C93.7 38.7359 93.4 37.7359 93.7 37.0359C94.1 36.3359 95.1 36.3359 95.9 36.9359ZM63.8 28.4359C62.8 30.2359 63.9 33.0359 66.2 34.7359C68.6 36.3359 71.3 36.2359 72.3 34.4359C73.3 32.6359 72.2 29.8359 69.9 28.1359C67.6 26.4359 64.8 26.6359 63.8 28.4359ZM76.9 31.2359C77.3 30.5359 78.3 30.5359 79.1 31.1359C80 31.7359 80.3 32.7359 80 33.4359C79.7 34.1359 78.6 34.1359 77.8 33.5359C76.9 32.9359 76.5 31.9359 76.9 31.2359ZM70.7 41.8358C70.2 42.7359 70.7 44.1359 71.9 44.9359C73 45.7359 74.4 45.6359 74.9 44.8358C75.4 43.9359 74.9 42.5359 73.7 41.7359C72.6 40.8358 71.2 40.9359 70.7 41.8358ZM75.8 57.4359C74.9 56.7359 74.5 55.6358 74.9 54.9359C75.3 54.2359 76.4 54.1358 77.3 54.8358C78.2 55.5359 78.6 56.6358 78.2 57.3358C77.8 58.0359 76.8 58.0359 75.8 57.4359ZM85.1 41.9359C84.5 42.9359 85.3 44.7359 86.8 45.8358C88.4 46.9359 90.1 46.9359 90.7 45.8358C91.3 44.8358 90.5 43.0359 89 41.9359C87.4 40.8358 85.7 40.8358 85.1 41.9359Z" fill="#194285"/>
</svg>
