<svg width="100" height="100" viewBox="0 0 100 100" fill="none" xmlns="http://www.w3.org/2000/svg">
<path d="M41.5 89.3877L5.5 53.3877L0 58.8877L40.5 99.3877L82.4 57.4877L77.9 52.9877L41.5 89.3877Z" fill="#5FC8F1"/>
<path d="M41.9587 0L82.8291 40.8704L40.8981 82.8014L0.0277113 41.931L41.9587 0Z" fill="#194285"/>
<path d="M8 40.8878H1L3 38.8878H8V40.8878Z" fill="#5FC8F1"/>
<rect x="6" y="46.8878" width="8" height="2" transform="rotate(-90 6 46.8878)" fill="#5FC8F1"/>
<rect x="6" y="44.8878" width="8" height="2" fill="#5FC8F1"/>
<rect x="12" y="52.8878" width="8" height="2" transform="rotate(-90 12 52.8878)" fill="#5FC8F1"/>
<rect x="12" y="50.8878" width="8" height="2" fill="#5FC8F1"/>
<rect x="18" y="58.8878" width="8" height="2" transform="rotate(-90 18 58.8878)" fill="#5FC8F1"/>
<rect x="18" y="56.8878" width="8" height="2" fill="#5FC8F1"/>
<rect x="24" y="64.8878" width="8" height="2" transform="rotate(-90 24 64.8878)" fill="#5FC8F1"/>
<rect x="24" y="62.8878" width="8" height="2" fill="#5FC8F1"/>
<rect x="30" y="70.8878" width="8" height="2" transform="rotate(-90 30 70.8878)" fill="#5FC8F1"/>
<rect x="30" y="68.8878" width="8" height="2" fill="#5FC8F1"/>
<rect x="36" y="76.8878" width="8" height="2" transform="rotate(-90 36 76.8878)" fill="#5FC8F1"/>
<rect x="36" y="74.8878" width="8" height="2" fill="#5FC8F1"/>
<path d="M44 74.8878V79.8878L42 81.8878V74.8878H44Z" fill="#5FC8F1"/>
<path d="M14 34.8878H7L9 32.8878H14V34.8878Z" fill="#5FC8F1"/>
<rect x="12" y="40.8878" width="8" height="2" transform="rotate(-90 12 40.8878)" fill="#5FC8F1"/>
<rect x="12" y="38.8878" width="8" height="2" fill="#5FC8F1"/>
<rect x="18" y="46.8878" width="8" height="2" transform="rotate(-90 18 46.8878)" fill="#5FC8F1"/>
<rect x="18" y="44.8878" width="8" height="2" fill="#5FC8F1"/>
<rect x="24" y="52.8878" width="8" height="2" transform="rotate(-90 24 52.8878)" fill="#5FC8F1"/>
<rect x="24" y="50.8878" width="8" height="2" fill="#5FC8F1"/>
<rect x="30" y="58.8878" width="8" height="2" transform="rotate(-90 30 58.8878)" fill="#5FC8F1"/>
<rect x="30" y="56.8878" width="8" height="2" fill="#5FC8F1"/>
<rect x="36" y="64.8878" width="8" height="2" transform="rotate(-90 36 64.8878)" fill="#5FC8F1"/>
<rect x="36" y="62.8878" width="8" height="2" fill="#5FC8F1"/>
<rect x="42" y="70.8878" width="8" height="2" transform="rotate(-90 42 70.8878)" fill="#5FC8F1"/>
<rect x="42" y="68.8878" width="8" height="2" fill="#5FC8F1"/>
<path d="M50 68.8878V73.8878L48 75.8878V68.8878H50Z" fill="#5FC8F1"/>
<path d="M20 28.8878H13L15 26.8878H20V28.8878Z" fill="#5FC8F1"/>
<rect x="18" y="34.8878" width="8" height="2" transform="rotate(-90 18 34.8878)" fill="#5FC8F1"/>
<rect x="18" y="32.8878" width="8" height="2" fill="#5FC8F1"/>
<rect x="24" y="40.8878" width="8" height="2" transform="rotate(-90 24 40.8878)" fill="#5FC8F1"/>
<rect x="24" y="38.8878" width="8" height="2" fill="#5FC8F1"/>
<rect x="30" y="46.8878" width="8" height="2" transform="rotate(-90 30 46.8878)" fill="#5FC8F1"/>
<rect x="30" y="44.8878" width="8" height="2" fill="#5FC8F1"/>
<rect x="36" y="52.8878" width="8" height="2" transform="rotate(-90 36 52.8878)" fill="#5FC8F1"/>
<rect x="36" y="50.8878" width="8" height="2" fill="#5FC8F1"/>
<rect x="42" y="58.8878" width="8" height="2" transform="rotate(-90 42 58.8878)" fill="#5FC8F1"/>
<rect x="42" y="56.8878" width="8" height="2" fill="#5FC8F1"/>
<rect x="48" y="64.8878" width="8" height="2" transform="rotate(-90 48 64.8878)" fill="#5FC8F1"/>
<rect x="48" y="62.8878" width="8" height="2" fill="#5FC8F1"/>
<path d="M56 62.8878V67.8878L54 69.8878V62.8878H56Z" fill="#5FC8F1"/>
<path d="M26 22.8878H19L21 20.8878H26V22.8878Z" fill="#5FC8F1"/>
<rect x="24" y="28.8878" width="8" height="2" transform="rotate(-90 24 28.8878)" fill="#5FC8F1"/>
<rect x="24" y="26.8878" width="8" height="2" fill="#5FC8F1"/>
<rect x="30" y="34.8878" width="8" height="2" transform="rotate(-90 30 34.8878)" fill="#5FC8F1"/>
<rect x="30" y="32.8878" width="8" height="2" fill="#5FC8F1"/>
<rect x="36" y="40.8878" width="8" height="2" transform="rotate(-90 36 40.8878)" fill="#5FC8F1"/>
<rect x="36" y="38.8878" width="8" height="2" fill="#5FC8F1"/>
<rect x="42" y="46.8878" width="8" height="2" transform="rotate(-90 42 46.8878)" fill="#5FC8F1"/>
<rect x="42" y="44.8878" width="8" height="2" fill="#5FC8F1"/>
<rect x="48" y="52.8878" width="8" height="2" transform="rotate(-90 48 52.8878)" fill="#5FC8F1"/>
<rect x="48" y="50.8878" width="8" height="2" fill="#5FC8F1"/>
<rect x="54" y="58.8878" width="8" height="2" transform="rotate(-90 54 58.8878)" fill="#5FC8F1"/>
<rect x="54" y="56.8878" width="8" height="2" fill="#5FC8F1"/>
<path d="M62 56.8878V61.8878L60 63.8878V56.8878H62Z" fill="#5FC8F1"/>
<path d="M32 16.8878H25L27 14.8878H32V16.8878Z" fill="#5FC8F1"/>
<rect x="30" y="22.8878" width="8" height="2" transform="rotate(-90 30 22.8878)" fill="#5FC8F1"/>
<rect x="30" y="20.8878" width="8" height="2" fill="#5FC8F1"/>
<rect x="36" y="28.8878" width="8" height="2" transform="rotate(-90 36 28.8878)" fill="#5FC8F1"/>
<rect x="36" y="26.8878" width="8" height="2" fill="#5FC8F1"/>
<rect x="42" y="34.8878" width="8" height="2" transform="rotate(-90 42 34.8878)" fill="#5FC8F1"/>
<rect x="42" y="32.8878" width="8" height="2" fill="#5FC8F1"/>
<rect x="48" y="40.8878" width="8" height="2" transform="rotate(-90 48 40.8878)" fill="#5FC8F1"/>
<rect x="48" y="38.8878" width="8" height="2" fill="#5FC8F1"/>
<rect x="54" y="46.8878" width="8" height="2" transform="rotate(-90 54 46.8878)" fill="#5FC8F1"/>
<rect x="54" y="44.8878" width="8" height="2" fill="#5FC8F1"/>
<rect x="60" y="52.8878" width="8" height="2" transform="rotate(-90 60 52.8878)" fill="#5FC8F1"/>
<rect x="60" y="50.8878" width="8" height="2" fill="#5FC8F1"/>
<path d="M68 50.8878V55.8878L66 57.8878V50.8878H68Z" fill="#5FC8F1"/>
<path d="M38 10.8878H31L33 8.88776H38V10.8878Z" fill="#5FC8F1"/>
<rect x="36" y="16.8878" width="8" height="2" transform="rotate(-90 36 16.8878)" fill="#5FC8F1"/>
<rect x="36" y="14.8878" width="8" height="2" fill="#5FC8F1"/>
<rect x="42" y="22.8878" width="8" height="2" transform="rotate(-90 42 22.8878)" fill="#5FC8F1"/>
<rect x="42" y="20.8878" width="8" height="2" fill="#5FC8F1"/>
<rect x="48" y="28.8878" width="8" height="2" transform="rotate(-90 48 28.8878)" fill="#5FC8F1"/>
<rect x="48" y="26.8878" width="8" height="2" fill="#5FC8F1"/>
<rect x="54" y="34.8878" width="8" height="2" transform="rotate(-90 54 34.8878)" fill="#5FC8F1"/>
<rect x="54" y="32.8878" width="8" height="2" fill="#5FC8F1"/>
<rect x="60" y="40.8878" width="8" height="2" transform="rotate(-90 60 40.8878)" fill="#5FC8F1"/>
<rect x="60" y="38.8878" width="8" height="2" fill="#5FC8F1"/>
<rect x="66" y="46.8878" width="8" height="2" transform="rotate(-90 66 46.8878)" fill="#5FC8F1"/>
<rect x="66" y="44.8878" width="8" height="2" fill="#5FC8F1"/>
<path d="M74 44.8878V49.8878L72 51.8878V44.8878H74Z" fill="#5FC8F1"/>
<path d="M44 4.88776H37L39 2.88776H44V4.88776Z" fill="#5FC8F1"/>
<rect x="42" y="10.8878" width="8" height="2" transform="rotate(-90 42 10.8878)" fill="#5FC8F1"/>
<rect x="42" y="8.88776" width="8" height="2" fill="#5FC8F1"/>
<rect x="48" y="16.8878" width="8" height="2" transform="rotate(-90 48 16.8878)" fill="#5FC8F1"/>
<rect x="48" y="14.8878" width="8" height="2" fill="#5FC8F1"/>
<rect x="54" y="22.8878" width="8" height="2" transform="rotate(-90 54 22.8878)" fill="#5FC8F1"/>
<rect x="54" y="20.8878" width="8" height="2" fill="#5FC8F1"/>
<rect x="60" y="28.8878" width="8" height="2" transform="rotate(-90 60 28.8878)" fill="#5FC8F1"/>
<rect x="60" y="26.8878" width="8" height="2" fill="#5FC8F1"/>
<rect x="66" y="34.8878" width="8" height="2" transform="rotate(-90 66 34.8878)" fill="#5FC8F1"/>
<rect x="66" y="32.8878" width="8" height="2" fill="#5FC8F1"/>
<rect x="72" y="40.8878" width="8" height="2" transform="rotate(-90 72 40.8878)" fill="#5FC8F1"/>
<rect x="72" y="38.8878" width="8" height="2" fill="#5FC8F1"/>
<path d="M80 38.8878V43.8878L78 45.8878V38.8878H80Z" fill="#5FC8F1"/>
<path d="M59 8.08777L57.5 9.58777L89.4 41.4878L80 50.8878L87.5 58.3878L56.5 89.3878L58 90.8878L99.9 48.9878L59 8.08777Z" fill="#194285"/>
</svg>
