<svg width="80" height="100" viewBox="0 0 80 100" fill="none" xmlns="http://www.w3.org/2000/svg">
<path d="M26.6 41.2904C24.2 41.0904 21.2 39.6904 19.5 37.5904C15.5 32.4904 13.8 25.7904 14.9 19.3904C15.7 14.7904 18.8 10.9904 23.2 9.29041L23.6 9.19041C25.9 8.29041 28.4 8.29041 30.6 9.29041C34.8 10.9904 37.9 14.7904 38.6 19.2904V19.4904C39.5 24.8904 38.6 30.8904 35.8 35.4904C35.7 35.5904 37 34.1904 40.6 33.9904C42.6 33.8904 44.6 33.5904 44.6 33.5904C46 28.3904 46.4 22.8904 45.4 17.4904V17.1904C44.2 9.99041 39.3 3.99041 32.6 1.19041C29 -0.309592 25 -0.409592 21.5 0.990408L20.9 1.19041C14 3.89041 8.90002 10.0904 7.70002 17.3904C5.90002 27.6904 8.60002 38.1904 15 46.3904L15.5 46.9904H21.2C22 44.5904 26.6 41.2904 26.6 41.2904Z" fill="#194285"/>
<path d="M33 43.6904C31.7 44.5904 30.5 45.7904 29.4 46.9904H37.6L38.1 46.3904C39.5 44.5904 40.7 42.6904 41.8 40.6904C38.7 40.9904 35.7 41.9904 33 43.6904Z" fill="#194285"/>
<path d="M52 54.9904H2C0.9 54.9904 0 54.0904 0 52.9904C0 51.8904 0.9 50.9904 2 50.9904H52C53.1 50.9904 54 51.8904 54 52.9904C54 54.0904 53.1 54.9904 52 54.9904Z" fill="#194285"/>
<path d="M35 73.9904H19C9.6 73.9904 2 66.3904 2 56.9904H52C52 66.3904 44.4 73.9904 35 73.9904Z" fill="#194285"/>
<path d="M41 99.9904H13L16 77.9904H38L41 99.9904Z" fill="#194285"/>
<path d="M61 43.7904V20.2904C61 19.1904 61.5 18.0904 62.3 17.3904L80 0.69043V37.3904C74.8 42.3904 68.3 44.4904 61 43.7904Z" fill="#194285"/>
<path d="M80 4.29041L71.1 12.6904C69.2 14.4904 68 17.0904 68 19.7904C68 24.4904 69.5 29.0904 72.5 32.6904L73 33.3904C74.6 35.3904 77.5 35.5904 79.3 33.7904L79.9 33.1904L80 4.29041Z" fill="#5FC8F1"/>
<path d="M58.7966 32.9594L58.7966 43.7594H52.9966L52.9966 32.9594H58.7966Z" fill="#5FC8F1"/>
<path d="M47 38.4904C47 36.5904 48.6 34.9904 50.5 34.9904H51V41.9904H50.5C48.6 41.9904 47 40.3904 47 38.4904Z" fill="#5FC8F1"/>
<path d="M45 35.9904L42.3 36.5904C33.9 38.4904 26.7 43.5904 22.2 50.8904H36.3L36.9 49.0904C38.2 45.2904 41.2 42.3904 45.1 41.2904V35.9904H45Z" fill="#5FC8F1"/>
</svg>
