<?xml version="1.0" encoding="utf-8"?>
<!-- Generator: Adobe Illustrator 21.1.0, SVG Export Plug-In . SVG Version: 6.00 Build 0)  -->
<svg version="1.1" id="Слой_2" xmlns="http://www.w3.org/2000/svg" xmlns:xlink="http://www.w3.org/1999/xlink" x="0px" y="0px"
	 viewBox="0 0 50 50" style="enable-background:new 0 0 50 50;" xml:space="preserve">
<style type="text/css">
	.st0{fill:#5FC8F1;}
	.st1{fill:#194285;}
	.st2{fill:#FFFFFF;}
	.st3{fill:none;stroke:#589255;stroke-miterlimit:10;}
	.st4{fill:#589255;}
	.st5{fill:none;stroke:#74B65F;stroke-miterlimit:10;}
	.st6{fill:none;}
	.st7{fill:#74B65F;}
</style>
<path class="st0" d="M36.9,19c0.1-0.3,0.1-0.7,0.1-1v0c0-2.4-1.7-4.4-4-4.9l0-1c0-0.6,0.3-1.3,0.7-1.7l0.8-0.8l-1.4-1.4l-0.6,0.6
	c-0.9,0.9-1.5,2.2-1.4,3.6l0,0.5h-0.9c-1.1,0-2.1,0.1-3.1,0.2V9h-2v4.5c-1.1,0.2-2.3,0.5-3.4,0.9l-1.9-3.6L18,11.8l1.8,3.4
	c-2.2,1-4.3,2.3-6.2,3.8h-2.1c-0.3,0-0.7-0.1-0.9-0.4L8.9,17l-1.4,1.4l1,1.1c0.8,0.8,1.8,1.3,3,1.4c-1.2,1.5-1.4,3.5-0.6,5.2
	l-2.4,2.4L9.9,30l2.2-2.2c1.1,1,2.5,1.3,3.8,1.2V32h2v-3.7c0.3-0.2,0.6-0.4,0.8-0.6L22,31l1.5-1.4l-3.2-3.4c1.9-1.7,4.3-2.8,6.8-3.1
	l2.4,2.4c0.9,1,2.2,1.5,3.5,1.5H34v-2h-1.1c-0.6,0-1.3-0.3-1.7-0.7L29.9,23l-1.4,0c0.1,0,0.2,0,0.3,0H32c1.6,0,3.1-0.8,4-2h4v-2
	H36.9z M25.5,20.1c-0.9,0-1.6-0.7-1.6-1.6s0.7-1.6,1.6-1.6s1.6,0.7,1.6,1.6S26.4,20.1,25.5,20.1z M33,21.1c-1.2,0-2.1-1-2.1-2.1
	c0-1.2,1-2.1,2.1-2.1c1.2,0,2.1,1,2.1,2.1C35.1,20.2,34.2,21.1,33,21.1z"/>
<rect x="-66.5" y="-2.5" class="st3" width="234" height="54"/>
<path class="st1" d="M25,0C11.2,0,0,11.2,0,25c0,13.8,11.2,25,25,25c13.8,0,25-11.2,25-25C50,11.2,38.8,0,25,0z M3.9,25
	c0-5.3,2-10.2,5.3-13.9l29.7,29.7c-3.7,3.3-8.6,5.3-13.9,5.3C13.4,46.1,3.9,36.6,3.9,25z M40.4,39.4L10.6,9.6
	c3.8-3.6,8.8-5.7,14.4-5.7c11.6,0,21.1,9.4,21.1,21.1C46.1,30.6,43.9,35.7,40.4,39.4z"/>
<rect x="20.5" y="36.2" transform="matrix(0.7071 -0.7071 0.7071 0.7071 -20.5729 26.3327)" class="st0" width="2" height="3.6"/>
<rect x="27" y="37" class="st0" width="2" height="4"/>
<rect x="36.5" y="26.2" transform="matrix(0.7071 0.7071 -0.7071 0.7071 30.7825 -18.3155)" class="st0" width="2" height="3.6"/>
</svg>
