<?xml version="1.0" encoding="utf-8"?>
<!-- Generator: Adobe Illustrator 21.1.0, SVG Export Plug-In . SVG Version: 6.00 Build 0)  -->
<svg version="1.1" id="Слой_2" xmlns="http://www.w3.org/2000/svg" xmlns:xlink="http://www.w3.org/1999/xlink" x="0px" y="0px"
	 viewBox="0 0 50 50" style="enable-background:new 0 0 50 50;" xml:space="preserve">
<style type="text/css">
	.st0{fill:#5FC8F1;}
	.st1{fill:#194285;}
	.st2{fill:#FFFFFF;}
	.st3{fill:none;stroke:#589255;stroke-miterlimit:10;}
	.st4{fill:#589255;}
	.st5{fill:none;stroke:#74B65F;stroke-miterlimit:10;}
	.st6{fill:none;}
	.st7{fill:#74B65F;}
</style>
<polygon class="st1" points="33,46 31,46 31,44 29,44 29,46 27,46 27,48 29,48 29,50 31,50 31,48 33,48 "/>
<polygon class="st1" points="45,20 43,20 43,18 41,18 41,20 39,20 39,22 41,22 41,24 43,24 43,22 45,22 "/>
<g>
	<polygon class="st1" points="19,16 17,16 17,14 15,14 15,16 13,16 13,18 15,18 15,20 17,20 17,18 19,18 	"/>
	<polygon class="st1" points="33,2 31,2 31,0 30,0 30,2 28,2 28,3 30,3 30,5 31,5 31,3 33,3 	"/>
	<polygon class="st1" points="5,5 3,5 3,3 2,3 2,5 0,5 0,6 2,6 2,8 3,8 3,6 5,6 	"/>
	<polygon class="st1" points="41,37 39,37 39,35 38,35 38,37 36,37 36,38 38,38 38,40 39,40 39,38 41,38 	"/>
</g>
<g>
	<rect x="4.1" y="29" transform="matrix(0.7071 -0.7071 0.7071 0.7071 -15.5576 22.5248)" class="st1" width="30.6" height="2"/>
	<path class="st0" d="M11.4,25.3L11.4,25.3c-0.4,0.4-0.4,1,0,1.4L22.7,38c0.4,0.4,1,0.4,1.4,0v0c0.4-0.4,0.4-1,0-1.4L12.8,25.3
		C12.4,24.9,11.8,24.9,11.4,25.3z"/>
	<path class="st0" d="M8.6,28.1L8.6,28.1c-0.4,0.4-0.4,1,0,1.4l11.3,11.3c0.4,0.4,1,0.4,1.4,0l0,0c0.4-0.4,0.4-1,0-1.4L10,28.1
		C9.6,27.8,9,27.8,8.6,28.1z"/>
	<path class="st0" d="M5.7,31L5.7,31c-0.4,0.4-0.4,1,0,1.4l11.3,11.3c0.4,0.4,1,0.4,1.4,0h0c0.4-0.4,0.4-1,0-1.4L7.2,31
		C6.8,30.6,6.1,30.6,5.7,31z"/>
	<path class="st0" d="M2.9,33.8L2.9,33.8c-0.4,0.4-0.4,1,0,1.4l11.3,11.3c0.4,0.4,1,0.4,1.4,0h0c0.4-0.4,0.4-1,0-1.4L4.3,33.8
		C3.9,33.4,3.3,33.4,2.9,33.8z"/>
	<path class="st0" d="M3.6,47.2c-0.4,0.4-1,0.4-1.4,0h0c-0.4-0.4-0.4-1,0-1.4l6.4-6.4l1.4,1.4L3.6,47.2z"/>
	<path class="st0" d="M1,41c-0.5,0-1-0.4-1-1l0,0c0-0.5,0.4-1,1-1h8.3L9.7,41H1z"/>
	<path class="st0" d="M11,49c0,0.5-0.4,1-1,1h0c-0.5,0-1-0.4-1-1v-8.5H11V49z"/>
	<path class="st1" d="M44,1L31.1,14.1l4.2,4.2L48.4,5.1c1.2-1.2,1.2-3.2-0.1-4.3C47.1-0.4,45.2-0.2,44,1z M47.3,4.9
		c-0.8,0.8-2,0.8-2.8,0s-0.8-2,0-2.8s2-0.8,2.8,0S48.1,4.2,47.3,4.9z"/>
</g>
</svg>
