<?xml version="1.0" encoding="utf-8"?>
<!-- Generator: Adobe Illustrator 21.1.0, SVG Export Plug-In . SVG Version: 6.00 Build 0)  -->
<svg version="1.1" id="Слой_2" xmlns="http://www.w3.org/2000/svg" xmlns:xlink="http://www.w3.org/1999/xlink" x="0px" y="0px"
	 viewBox="0 0 50 50" style="enable-background:new 0 0 50 50;" xml:space="preserve">
<style type="text/css">
	.st0{fill:#5FC8F1;}
	.st1{fill:#194285;}
	.st2{fill:#FFFFFF;}
	.st3{fill:none;stroke:#589255;stroke-miterlimit:10;}
	.st4{fill:#589255;}
	.st5{fill:none;stroke:#74B65F;stroke-miterlimit:10;}
	.st6{fill:none;}
	.st7{fill:#74B65F;}
</style>
<g>
	<g>
		<path class="st0" d="M50,0l0,7c-2.2,1.4-6.1,1.4-8.1-0.6l0,0l-4.3-4.3l0,0C37,1.5,36.3,0.8,36,0.1C36,0,50,0,50,0z"/>
		<path class="st1" d="M36.7,3.9l-2.5,2.5c-0.3,0.3-0.3,0.9,0,1.2l3,3.1c0.3,0.3,0.9,0.3,1.2,0l2.5-2.5L36.7,3.9z"/>
		<path class="st0" d="M36,14.2c0-0.1,0-0.2-0.1-0.3h0l0,0c0-0.1-1.4-2.5-1.4-2.5s-1.3,2.4-1.4,2.5l0,0h0C33,14.2,33,14.5,33,14.8
			c0.2,0.8,1,1.3,1.8,1.2C35.6,15.8,36.1,15,36,14.2z"/>
		<path class="st1" d="M28.9,0.9c-0.3,0.3-0.2,0.9,0.1,1.3l3.5,3.5l1.1-1.1L30.1,1C29.8,0.6,29.2,0.6,28.9,0.9z"/>
	</g>
	<g>
		<path class="st1" d="M6.8,44.2c0.1,1,1,1.8,2,1.8H11v2c0,1.1,0.9,2,2,2c1.1,0,2-0.9,2-2v-2h35V24H4L6.8,44.2z"/>
		<path class="st1" d="M8,18v-4c0-1.1,0.9-2,2-2h2c0.6,0,1-0.4,1-1s-0.4-1-1-1H8V8H6v2H4v8H2c-1.1,0-2,0.9-2,2c0,1.1,0.9,2,2,2h48
			v-4H8z"/>
	</g>
</g>
</svg>
