<?xml version="1.0" encoding="utf-8"?>
<!-- Generator: Adobe Illustrator 21.1.0, SVG Export Plug-In . SVG Version: 6.00 Build 0)  -->
<svg version="1.1" id="Слой_2" xmlns="http://www.w3.org/2000/svg" xmlns:xlink="http://www.w3.org/1999/xlink" x="0px" y="0px"
	 viewBox="0 0 50 50" style="enable-background:new 0 0 50 50;" xml:space="preserve">
<style type="text/css">
	.st0{fill:#5FC8F1;}
	.st1{fill:#194285;}
	.st2{fill:#FFFFFF;}
	.st3{fill:none;stroke:#589255;stroke-miterlimit:10;}
	.st4{fill:#589255;}
	.st5{fill:none;stroke:#74B65F;stroke-miterlimit:10;}
	.st6{fill:none;}
	.st7{fill:#74B65F;}
</style>
<path class="st1" d="M32.7,0l-0.4,0.4c-0.8,0.8-1.3,1.8-1.3,2.9l0,23.5c7.2,0.7,13.7-1.4,19-6.3V0H32.7z"/>
<g>
	
		<rect x="20.5" y="18.5" transform="matrix(-1.836970e-16 1 -1 -1.836970e-16 47.2967 -4.531)" class="st0" width="10.8" height="5.8"/>
	<path class="st0" d="M17,21.5L17,21.5c0-1.9,1.6-3.5,3.5-3.5H21v7h-0.5C18.6,25,17,23.4,17,21.5z"/>
	<path class="st0" d="M12.3,19.7c-3.2,0.7-6.2,1.9-8.9,3.5c0,1.3-0.1,2.6-0.2,3.9H2v13h3.5c0.9,0,1.6-0.8,1.4-1.7c0,0,0,0,0,0
		c-1.3-6,2.1-12.2,8-13.9c0,0,0.1,0,0.1,0v-5.3L12.3,19.7z"/>
</g>
<path class="st1" d="M13,0H0v16h13c1.1,0,2-0.9,2-2V2C15,0.9,14.1,0,13,0z"/>
<path class="st1" d="M0,50V18h4v16c0,6.5,3.1,12.4,8,16H0z"/>
<path class="st0" d="M38.5,0C38.2,0.9,38,1.8,38,2.7v0c0,4.7,1.5,9.3,4.5,12.9l0.5,0.7c1.6,2,4.5,2.2,6.3,0.4l0.6-0.6L50,0H38.5z"/>
</svg>
